<svg width="24" height="24" viewBox="0 0 24 24" fill="none" xmlns="http://www.w3.org/2000/svg">
<path d="M11.5758 0.0715549C11.4633 0.113742 11.2805 0.235618 11.1727 0.34343C10.7977 0.713743 10.8211 0.38093 10.8211 5.9075V10.82H5.9086C0.382031 10.82 0.714844 10.8013 0.344531 11.1716C-0.114844 11.6309 -0.114844 12.3528 0.344531 12.8122C0.714844 13.1825 0.382031 13.1638 5.9086 13.1638H10.8211V18.0763C10.8211 23.6028 10.8023 23.27 11.1727 23.6403C11.632 24.0997 12.3539 24.0997 12.8133 23.6403C13.1836 23.27 13.1648 23.6028 13.1648 18.0763V13.1638H18.0773C23.6039 13.1638 23.2711 13.1825 23.6414 12.8122C24.1008 12.3528 24.1008 11.6309 23.6414 11.1716C23.2711 10.8013 23.6039 10.82 18.0773 10.82H13.1648V5.9075C13.1648 0.38093 13.1836 0.713743 12.8133 0.34343C12.4898 0.0153049 12.0211 -0.0831327 11.5758 0.0715549Z" fill="black"/>
</svg>
