<svg width="24" height="23" viewBox="0 0 24 23" fill="none" xmlns="http://www.w3.org/2000/svg">
<path d="M21.3984 0.070074C20.8312 0.276324 20.4375 0.6232 20.189 1.15289C20.0531 1.43883 20.039 1.50914 20.039 1.91226C20.039 2.15601 20.0484 2.41851 20.0625 2.49351C20.0859 2.62476 20.0625 2.64351 18.4359 3.60914L16.7812 4.59351L16.6078 4.44351C16.3781 4.23726 15.9984 4.06851 15.6281 4.00758C14.9015 3.88101 14.1234 4.22789 13.664 4.87945L13.5703 5.01539L12.1031 4.29351L10.6359 3.57633L10.6547 3.4357C10.6922 3.16851 10.5984 2.73726 10.4297 2.39976C9.84374 1.20914 8.26874 0.946638 7.28905 1.87008C6.81562 2.32008 6.58593 2.99976 6.70312 3.60445C6.73593 3.76851 6.76406 3.94664 6.76874 4.00289C6.77343 4.08258 6.37968 4.39664 4.88906 5.51226L3.00468 6.91851L2.81718 6.83414C1.84687 6.36539 0.674999 6.80133 0.192187 7.81383C0.0328125 8.14664 0.0234375 8.20289 0.0234375 8.61539C0.0234375 9.12164 0.0984374 9.37008 0.365625 9.78258C0.885937 10.5701 2.00625 10.856 2.88281 10.4248C3.29531 10.2185 3.60468 9.89977 3.81562 9.45914C3.95156 9.1732 3.96093 9.12633 3.95156 8.66227C3.94687 8.39039 3.9375 8.10914 3.92812 8.03883C3.91406 7.91227 4.02656 7.8232 5.81249 6.48726L7.71093 5.07164L8.01562 5.18414C8.27812 5.28258 8.38124 5.29195 8.76562 5.27789C9.25312 5.25445 9.58593 5.13726 9.88593 4.88883L10.0406 4.75289L11.7187 5.59195L13.3969 6.43101L13.4531 6.61851C13.589 7.08258 14.0156 7.54664 14.5219 7.7857C14.7656 7.8982 14.9109 7.9357 15.2156 7.94977C16.3265 8.0107 17.2078 7.24195 17.325 6.11226L17.3578 5.80758L19.1297 4.7482C20.1047 4.16695 20.9203 3.69351 20.9437 3.69351C20.9672 3.69351 21.1031 3.74508 21.2437 3.8107C21.9562 4.13414 22.8656 3.94195 23.4328 3.34195C24.375 2.3482 24.089 0.782574 22.8562 0.177887C22.5656 0.032574 22.4812 0.013824 22.0828 0.00444902C21.7406 -0.00961349 21.5765 0.00913652 21.3984 0.070074Z" fill="black"/>
<path d="M20.4657 8.00596C20.3954 8.02939 20.2922 8.08564 20.2407 8.13252C20.0063 8.34346 20.0157 7.98721 20.0157 15.3232C20.0157 22.1107 20.0157 22.1763 20.1094 22.3263C20.2922 22.6216 20.3579 22.631 22.0172 22.631C23.4235 22.631 23.5172 22.6263 23.6626 22.5372C23.7469 22.4857 23.8547 22.3779 23.9063 22.2935C24.0001 22.1388 24.0001 22.0404 24.0001 15.3185C24.0001 8.75127 23.9954 8.48877 23.911 8.33408C23.8641 8.24502 23.7516 8.12783 23.6672 8.07627C23.5172 7.98721 23.4141 7.98252 22.0547 7.97314C21.2579 7.96846 20.5407 7.98252 20.4657 8.00596Z" fill="black"/>
<path d="M6.97969 9.42629C6.89063 9.48254 6.78281 9.60442 6.74063 9.69348C6.66094 9.84817 6.65625 10.2466 6.65625 15.9747C6.65625 21.7029 6.66094 22.1013 6.74063 22.256C6.78281 22.345 6.89063 22.4669 6.97969 22.5232C7.13906 22.631 7.15781 22.631 8.66719 22.631C10.1016 22.631 10.2047 22.6263 10.3453 22.5372C10.4297 22.4904 10.5328 22.3779 10.5797 22.2935C10.6594 22.1482 10.6641 21.82 10.6641 15.9747C10.6641 10.1294 10.6594 9.80129 10.5797 9.65598C10.5328 9.57161 10.4297 9.45911 10.3453 9.41223C10.2047 9.32317 10.1016 9.31848 8.66719 9.31848C7.15781 9.31848 7.13906 9.31848 6.97969 9.42629Z" fill="black"/>
<path d="M13.6547 12.0841C13.5703 12.131 13.4672 12.2435 13.4203 12.3279C13.3406 12.4732 13.3359 12.7497 13.3359 17.3107C13.3359 21.8716 13.3406 22.1482 13.4203 22.2935C13.4672 22.3779 13.5703 22.4904 13.6547 22.5372C13.7953 22.6263 13.8984 22.631 15.3328 22.631C16.8422 22.631 16.8609 22.631 17.0203 22.5232C17.3672 22.2935 17.3437 22.645 17.3437 17.3107C17.3437 11.9763 17.3672 12.3279 17.0203 12.0982C16.8609 11.9904 16.8422 11.9904 15.3328 11.9904C13.8984 11.9904 13.7953 11.995 13.6547 12.0841Z" fill="black"/>
<path d="M0.31875 14.7419C0.253125 14.7841 0.15 14.8966 0.0984376 14.995C0 15.1638 0 15.206 0 18.6513C0 22.0497 0.00468751 22.1435 0.0937501 22.2935C0.145313 22.3779 0.253125 22.4857 0.3375 22.5372C0.482813 22.6263 0.576563 22.631 1.98282 22.631C3.64219 22.631 3.70782 22.6216 3.89063 22.3263C3.98438 22.1763 3.98438 22.1013 3.98438 18.6513C3.98438 14.7607 3.99844 14.9435 3.68907 14.756C3.54844 14.6669 3.44532 14.6622 1.99219 14.6622C0.637501 14.6669 0.431251 14.6763 0.31875 14.7419Z" fill="black"/>
</svg>
