<svg width="24" height="21" viewBox="0 0 24 21" fill="none" xmlns="http://www.w3.org/2000/svg">
<path d="M11.1328 0.0544171C9.15937 0.495042 7.80469 2.25754 7.9125 4.24973C7.98281 5.58567 8.64844 6.73411 9.7875 7.47473C10.5516 7.97161 11.5312 8.20598 12.4125 8.09348C14.4422 7.84036 15.9328 6.26536 16.0406 4.24973C16.1109 2.89973 15.4969 1.58254 14.4187 0.785667C14.0578 0.513792 13.4531 0.21848 13.0312 0.101292C12.6375 -0.0112079 11.5359 -0.0346454 11.1328 0.0544171Z" fill="black"/>
<path d="M3.07499 3.05442C2.69999 3.16223 2.4703 3.27473 2.15624 3.5138C0.937491 4.43723 0.810929 6.25598 1.89843 7.34348C2.40937 7.85442 3.01405 8.10754 3.72655 8.10754C4.93124 8.10754 5.9578 7.29661 6.23437 6.11067C6.52499 4.87317 5.80312 3.5513 4.59374 3.12005C4.22343 2.9888 3.43593 2.95598 3.07499 3.05442Z" fill="black"/>
<path d="M19.575 3.05442C19.2 3.16223 18.9703 3.27473 18.6562 3.5138C17.4375 4.43723 17.3109 6.25598 18.3984 7.34348C18.9094 7.85442 19.5141 8.10754 20.2266 8.10754C21.4312 8.10754 22.4578 7.29661 22.7344 6.11067C23.025 4.87317 22.3031 3.5513 21.0937 3.12005C20.7234 2.9888 19.9359 2.95598 19.575 3.05442Z" fill="black"/>
<path d="M10.9687 9.71538C9.57651 9.91695 8.76557 10.2216 7.89839 10.8779C6.94683 11.5951 6.3187 12.4529 5.97651 13.5169C5.65308 14.5154 5.57339 15.5982 5.62964 17.9841L5.67183 19.6482L5.80308 19.9154C5.97651 20.2669 6.26245 20.5435 6.63276 20.7216L6.93745 20.8669H11.7421C16.8234 20.8669 16.9734 20.8623 17.4656 20.6513C17.7421 20.5294 17.9906 20.2623 18.1593 19.9107L18.2812 19.6482L18.2952 17.3466C18.3093 14.8294 18.2859 14.4873 18.0421 13.7185C17.4234 11.7451 15.6843 10.156 13.7578 9.79976C13.4156 9.73413 11.2687 9.6732 10.9687 9.71538Z" fill="black"/>
<path d="M2.39063 9.80911C1.36875 10.0575 0.473438 10.8919 0.135938 11.9185L0 12.3357V15.3591V18.3825L0.107813 18.5794C0.271875 18.8888 0.478125 19.095 0.764063 19.2357L1.03125 19.3669L2.52656 19.381C3.34688 19.3904 4.06875 19.3857 4.12969 19.3716L4.24219 19.3435L4.23281 17.3372C4.22344 15.256 4.25625 14.731 4.42969 13.8732C4.68281 12.6638 5.26406 11.5154 6.06094 10.6622L6.27188 10.4372L6.15938 10.3435C5.95313 10.17 5.30156 9.87474 4.96875 9.80442C4.51875 9.71067 2.78906 9.71536 2.39063 9.80911Z" fill="black"/>
<path d="M18.9656 9.80912C18.6141 9.88412 18.0656 10.1326 17.85 10.3154L17.6953 10.4466L17.9766 10.756C18.7734 11.6513 19.2797 12.6638 19.5234 13.8544C19.6875 14.6701 19.7203 15.2701 19.7156 17.3372L19.7109 19.3435L19.8234 19.3716C19.8844 19.3857 20.5969 19.3904 21.4031 19.381C22.7906 19.3669 22.8891 19.3622 23.0906 19.2685C23.3906 19.1279 23.6766 18.856 23.8266 18.5747L23.9531 18.3357V15.3357V12.3357L23.8172 11.9185C23.475 10.8826 22.575 10.0482 21.5391 9.80443C21.1313 9.71068 19.4016 9.71068 18.9656 9.80912Z" fill="black"/>
</svg>
