<svg width="24" height="24" viewBox="0 0 24 24" fill="none" xmlns="http://www.w3.org/2000/svg">
<path d="M1.26562 0.0543464C0.745312 0.218409 0.375 0.541846 0.145312 1.01997L0 1.32466V3.99653V6.66841L0.154687 6.98247C0.342187 7.36685 0.7125 7.71841 1.09219 7.8731L1.35937 7.98091L5.29687 7.99497C8.12343 8.00435 9.31406 7.99497 9.51562 7.95747C10.2656 7.81216 10.8 7.27778 10.9453 6.52778C10.9828 6.33091 10.9922 5.51528 10.9828 3.80903C10.9687 1.3856 10.9687 1.37153 10.8609 1.10435C10.7062 0.724659 10.3547 0.354346 9.97031 0.166846L9.65625 0.0121589L5.55469 0.00278387C2.32969 -0.00659113 1.41094 0.00747137 1.26562 0.0543464ZM9.41718 1.59185C9.48281 1.6856 9.49218 1.99028 9.49218 4.00591C9.49218 6.25591 9.4875 6.32153 9.39843 6.4106C9.30468 6.50435 9.24375 6.50435 5.49375 6.50435C2.12344 6.50435 1.67344 6.49497 1.57969 6.42935L1.47656 6.35903V4.0106C1.47656 1.88716 1.48594 1.65278 1.55625 1.5731C1.62656 1.49341 1.80937 1.48872 5.48906 1.48872H9.34687L9.41718 1.59185Z" fill="#57BD00"/>
<path d="M14.2689 0.0543448C13.772 0.185595 13.2892 0.621532 13.0923 1.10434L12.9845 1.37153L12.9704 6.80903C12.961 10.7372 12.9704 12.3262 13.0079 12.5278C13.1532 13.2778 13.6876 13.8122 14.4376 13.9575C14.6392 13.995 15.8298 14.0043 18.6564 13.995L22.5939 13.9809L22.861 13.8731C23.2407 13.7184 23.611 13.3668 23.7985 12.9825L23.9532 12.6684V6.99653V1.32466L23.8079 1.01997C23.6204 0.62622 23.3392 0.34497 22.9548 0.162157L22.6407 0.0121573L18.5626 0.00278227C15.436 -0.00190523 14.4329 0.00746977 14.2689 0.0543448ZM22.3923 1.56841C22.472 1.63872 22.4767 1.86841 22.4767 7.00122V12.359L22.3735 12.4293C22.2798 12.495 21.8298 12.5043 18.4595 12.5043C14.7095 12.5043 14.6485 12.5043 14.5548 12.4106C14.461 12.3168 14.461 12.2559 14.461 7.00591C14.461 2.27622 14.4704 1.68559 14.536 1.59184L14.6064 1.48872H18.4548C21.9704 1.48872 22.3126 1.49341 22.3923 1.56841Z" fill="#57BD00"/>
<path d="M1.38281 10.0246C0.857812 10.1278 0.365625 10.5262 0.126562 11.0418L0 11.309V16.9809V22.6528L0.145312 22.9575C0.328125 23.3465 0.61875 23.6371 1.00781 23.82L1.3125 23.9653H5.48437H9.65625L9.97031 23.8106C10.3547 23.6231 10.7062 23.2528 10.8609 22.8731L10.9687 22.6059L10.9828 17.1684C10.9922 13.2403 10.9828 11.6512 10.9453 11.4496C10.8047 10.7137 10.2797 10.1793 9.54843 10.0246C9.24843 9.9637 1.71094 9.95901 1.38281 10.0246ZM9.39843 11.5668C9.49218 11.6606 9.49218 11.7215 9.49218 16.9715C9.49218 21.7012 9.48281 22.2918 9.41718 22.3856L9.34687 22.4887H5.49844C1.98281 22.4887 1.64062 22.484 1.56094 22.409C1.48125 22.3387 1.47656 22.109 1.47656 16.9762V11.6184L1.57969 11.5481C1.67344 11.4825 2.12344 11.4731 5.49375 11.4731C9.24375 11.4731 9.30468 11.4731 9.39843 11.5668Z" fill="#57BD00"/>
<path d="M14.3439 16.0387C13.6407 16.2121 13.1485 16.7325 13.0079 17.4496C12.9704 17.6465 12.961 18.4575 12.9704 20.1684C12.9845 22.5918 12.9845 22.6059 13.0923 22.8731C13.247 23.2528 13.5985 23.6231 13.9829 23.8106L14.297 23.9653H18.4689H22.6407L22.9548 23.8153C23.3392 23.6325 23.6204 23.3512 23.8079 22.9575L23.9532 22.6528V19.9809V17.309L23.7985 16.995C23.611 16.6106 23.2407 16.259 22.861 16.1043L22.5939 15.9965L18.586 15.9871C15.5439 15.9825 14.522 15.9918 14.3439 16.0387ZM22.3735 17.5481L22.4767 17.6184V19.9668C22.4767 22.0903 22.4673 22.3246 22.397 22.4043C22.3267 22.484 22.1439 22.4887 18.4642 22.4887H14.6064L14.536 22.3856C14.4704 22.2918 14.461 21.9871 14.461 19.9715C14.461 17.7215 14.4657 17.6559 14.5548 17.5668C14.6485 17.4731 14.7095 17.4731 18.4595 17.4731C21.8298 17.4731 22.2798 17.4825 22.3735 17.5481Z" fill="#57BD00"/>
</svg>
