<svg width="21" height="24" viewBox="0 0 21 24" fill="none" xmlns="http://www.w3.org/2000/svg">
<path d="M4.24239 0.090603C3.76427 0.278103 3.74083 0.315603 1.87052 3.55935C0.909578 5.22341 0.0986399 6.67654 0.0658274 6.78904C0.0095774 6.96247 0.000202395 8.3406 0.000202395 14.7343C0.000202395 23.3125 -0.0185476 22.7781 0.30489 23.2703C0.39864 23.4109 0.576765 23.589 0.71739 23.6828C1.21427 24.0203 0.483015 23.9968 10.4533 23.9968C20.4236 23.9968 19.6924 24.0203 20.1893 23.6828C20.3299 23.589 20.508 23.4109 20.6018 23.2703C20.9252 22.7781 20.9065 23.3172 20.9065 14.6593V6.83591L20.808 6.63904C20.7518 6.53122 19.9361 5.11091 18.9986 3.48904C17.1611 0.306228 17.1424 0.273415 16.6502 0.090603C16.4065 -0.00314693 16.2799 -0.00314693 10.4393 0.00154056C4.65489 0.00154056 4.46739 0.00622806 4.24239 0.090603ZM9.75021 3.67654V5.94997H5.94864C2.55489 5.94997 2.14708 5.9406 2.1752 5.87966C2.19864 5.81872 3.60958 3.3531 4.4627 1.88123L4.74395 1.4031H7.24708H9.75021V3.67654ZM17.4565 3.62966C18.1549 4.83904 18.7455 5.86091 18.7643 5.88904C18.7971 5.93591 18.033 5.94997 15.0049 5.94997H11.2033V3.67654V1.4031L13.6924 1.41248L16.1815 1.42654L17.4565 3.62966ZM19.5002 14.889C19.5002 21.8312 19.4955 22.4265 19.4205 22.5062C19.3502 22.5859 19.008 22.5906 10.4627 22.5906C2.25958 22.5906 1.57052 22.5859 1.49083 22.5109C1.41114 22.4406 1.40645 22.1406 1.40645 14.8937V7.35622H10.4533H19.5002V14.889Z" fill="black"/>
<path d="M12.844 12.5172C12.7784 12.5406 12.0002 13.2906 11.1096 14.1812L9.49244 15.7937L8.85962 15.1562C8.51275 14.8093 8.17056 14.4906 8.10025 14.4531C7.80494 14.2984 7.40181 14.425 7.219 14.725C7.1065 14.9078 7.09712 15.2265 7.19087 15.4094C7.27525 15.5594 9.07525 17.3547 9.22056 17.4297C9.34712 17.4953 9.60962 17.4953 9.78306 17.4297C9.93306 17.3734 13.6596 13.6797 13.7627 13.4875C13.8002 13.4172 13.8284 13.2625 13.8284 13.1453C13.8284 12.7515 13.594 12.5031 13.2002 12.4797C13.069 12.475 12.9096 12.489 12.844 12.5172Z" fill="black"/>
</svg>
