<svg width="24" height="24" viewBox="0 0 24 24" fill="none" xmlns="http://www.w3.org/2000/svg">
<g clip-path="url(#clip0_92_23)">
<path d="M0.117188 0.117187L0 0.229687V12V23.7703L0.117188 23.8828L0.229688 24H8.50781H16.7859L16.8984 23.8828C17.0063 23.7797 17.0156 23.7328 17.0156 23.3484V22.9312L17.9438 23.4656C18.45 23.7609 18.9047 24 18.9516 24C19.0734 24 19.1531 23.9531 21.5859 22.5516C22.8 21.8531 23.8359 21.225 23.8969 21.1594L24 21.0422V18.2391C24 15.6328 23.9953 15.4266 23.9203 15.3375C23.8734 15.2812 22.7719 14.625 21.4688 13.875C19.7672 12.8953 19.0641 12.5156 18.9609 12.5156C18.8672 12.5156 18.5203 12.6891 17.9297 13.0312L17.0391 13.5469L17.0156 6.8625L16.9922 0.178124L16.8797 0.0890615C16.7719 -9.53674e-07 16.575 -9.53674e-07 8.49844 -9.53674e-07H0.229688L0.117188 0.117187ZM16.2656 7.37344V13.9922L15.1453 14.6437C14.3766 15.0891 14.0109 15.3281 13.9734 15.4078C13.8938 15.5812 13.9031 20.9344 13.9828 21.0937C14.0203 21.1734 14.4 21.4172 15.1406 21.8484L16.2422 22.4859L16.2563 22.8703L16.2703 23.25H8.50781H0.75V12V0.749999H8.50781H16.2656V7.37344ZM20.9063 14.4234C21.9656 15.0328 22.8281 15.5437 22.8281 15.5578C22.8281 15.5719 21.9609 16.0875 20.8969 16.7016L18.9703 17.8125L18.0281 17.2687C17.5078 16.9687 16.6406 16.4672 16.0922 16.1578C15.5438 15.8437 15.0984 15.5766 15.0938 15.5625C15.0938 15.5484 15.5438 15.2766 16.0922 14.9625C16.6359 14.6484 17.4984 14.1516 18 13.8562C18.5016 13.5609 18.9328 13.3219 18.9516 13.3172C18.9703 13.3125 19.8516 13.8094 20.9063 14.4234ZM16.6219 17.325C17.6766 17.9344 18.5531 18.4453 18.5766 18.4641C18.5953 18.4828 18.6047 19.5047 18.6 20.7328L18.5859 22.9687L16.6406 21.8484L14.6953 20.7234L14.6813 18.4734C14.6766 17.2312 14.6813 16.2187 14.6906 16.2187C14.7 16.2187 15.5672 16.7156 16.6219 17.325ZM23.2172 20.7234C23.1938 20.7469 22.3875 21.2156 21.4219 21.7734C20.4563 22.3312 19.5938 22.8328 19.5141 22.8844L19.3594 22.9781V20.7094V18.4453L19.7484 18.2297C19.9594 18.1078 20.8313 17.6062 21.6797 17.1187L23.2266 16.2234L23.2406 18.4547C23.2453 19.6828 23.2359 20.7047 23.2172 20.7234Z" fill="black"/>
<path d="M2.50308 2.35313C2.44683 2.37656 2.37651 2.45156 2.34839 2.5125C2.27808 2.67656 2.27808 6.69844 2.34839 6.85781C2.37651 6.92344 2.45151 6.99844 2.51714 7.02656C2.59214 7.06406 3.33745 7.07812 4.90308 7.07812H7.17652L7.28902 6.96094L7.4062 6.84844V5.67656V4.50469L7.75777 4.19063C7.95464 4.01719 8.12339 3.825 8.13746 3.76406C8.19839 3.52969 7.98746 3.28125 7.73433 3.28125C7.68277 3.28125 7.22808 3.65625 6.67964 4.15313L5.71402 5.02969L5.34839 4.66875C4.94527 4.27969 4.83745 4.24219 4.62183 4.41094C4.52808 4.48125 4.49995 4.54688 4.49995 4.67813C4.49995 4.8375 4.54683 4.89844 5.02964 5.38125C5.73745 6.08906 5.66714 6.09375 6.5062 5.325L6.6562 5.18438V5.75625V6.32813H4.85152H3.04683V4.6875V3.04688H5.10933H7.17652L7.28902 2.92969C7.47652 2.74688 7.43902 2.47969 7.21402 2.36719C7.1062 2.30625 6.72183 2.29688 4.84214 2.30156C3.40308 2.30156 2.56401 2.32031 2.50308 2.35313Z" fill="black"/>
<path d="M9.21094 2.41406C9.13594 2.48437 9.09375 2.58281 9.09375 2.67187C9.09375 2.76093 9.13594 2.85937 9.21094 2.92968L9.32344 3.04687H11.8922C14.6953 3.04687 14.625 3.05156 14.6906 2.78437C14.7328 2.61562 14.6484 2.41406 14.5031 2.34843C14.4187 2.31093 13.6359 2.29687 11.8547 2.29687H9.32344L9.21094 2.41406Z" fill="black"/>
<path d="M9.21094 4.42969C9.13594 4.5 9.09375 4.59844 9.09375 4.6875C9.09375 4.77656 9.13594 4.875 9.21094 4.94531L9.32344 5.0625H11.8828C13.4344 5.0625 14.475 5.04375 14.5266 5.01562C14.5734 4.99219 14.6391 4.90781 14.6719 4.82812C14.7422 4.66406 14.6719 4.43437 14.5266 4.35937C14.475 4.33125 13.4344 4.3125 11.8828 4.3125H9.32344L9.21094 4.42969Z" fill="black"/>
<path d="M2.50308 9.66562C2.44683 9.68906 2.37651 9.76406 2.34839 9.825C2.27808 9.98906 2.27808 14.0109 2.34839 14.1703C2.37651 14.2359 2.45151 14.3109 2.51714 14.3391C2.59214 14.3766 3.32339 14.3906 4.8562 14.3906C7.19995 14.3906 7.29839 14.3812 7.37808 14.1797C7.39214 14.1375 7.4062 13.5891 7.4062 12.9609V11.8172L7.75777 11.5031C7.95464 11.3297 8.12339 11.1375 8.13746 11.0766C8.19839 10.8422 7.98746 10.5937 7.73433 10.5937C7.67808 10.5937 7.23277 10.9641 6.67964 11.4656L5.71402 12.3375L5.34839 11.9812C4.94527 11.5922 4.83745 11.5547 4.62183 11.7234C4.52808 11.7984 4.49995 11.8594 4.49995 11.9953C4.49995 12.1547 4.54214 12.2109 5.02964 12.6937C5.74683 13.3969 5.67183 13.4016 6.5062 12.6375L6.6562 12.4969V13.0687V13.6406H4.85152H3.04683V12V10.3594H5.10933H7.17652L7.28902 10.2422C7.36402 10.1719 7.4062 10.0734 7.4062 9.98437C7.4062 9.89531 7.36402 9.79687 7.28902 9.72656L7.17652 9.60937L4.88902 9.61406C3.41714 9.61406 2.56401 9.63281 2.50308 9.66562Z" fill="black"/>
<path d="M9.21094 9.72656C9.13594 9.79687 9.09375 9.89531 9.09375 9.98437C9.09375 10.0734 9.13594 10.1719 9.21094 10.2422L9.32344 10.3594H11.8922C14.6953 10.3594 14.625 10.3641 14.6906 10.0969C14.7328 9.92812 14.6484 9.72656 14.5031 9.66093C14.4187 9.62343 13.6359 9.60937 11.8547 9.60937H9.32344L9.21094 9.72656Z" fill="black"/>
<path d="M9.21094 11.7422C9.13594 11.8125 9.09375 11.9109 9.09375 12C9.09375 12.0891 9.13594 12.1875 9.21094 12.2578L9.32344 12.375H11.8828C13.4344 12.375 14.475 12.3562 14.5266 12.3281C14.5734 12.3047 14.6391 12.2203 14.6719 12.1406C14.7422 11.9766 14.6719 11.7469 14.5266 11.6719C14.475 11.6437 13.4344 11.625 11.8828 11.625H9.32344L9.21094 11.7422Z" fill="black"/>
<path d="M2.47964 16.9828C2.43746 17.0156 2.38121 17.0859 2.35308 17.1422C2.27808 17.2828 2.27339 21.3187 2.34839 21.4828C2.37652 21.5484 2.45152 21.6234 2.51714 21.6515C2.68121 21.7265 7.04527 21.7219 7.1859 21.6469C7.39683 21.5344 7.40152 21.5015 7.40621 20.2875V19.1297L7.75308 18.8203C7.94527 18.6469 8.11402 18.4547 8.13277 18.389C8.17496 18.2156 8.07652 18.0187 7.92183 17.9531C7.67808 17.85 7.73902 17.8078 6.1734 19.2375L5.71871 19.6547L5.3484 19.2984C4.94527 18.9047 4.83746 18.8672 4.62183 19.0359C4.52808 19.1109 4.49996 19.1719 4.49996 19.3078C4.49996 19.4672 4.54215 19.5234 5.02965 20.0062C5.74683 20.7094 5.67183 20.714 6.50621 19.95L6.65621 19.8094V20.3812V20.9531H4.85152H3.04683V19.3125V17.6719H5.10933H7.17652L7.28902 17.5547C7.36402 17.4844 7.40621 17.3859 7.40621 17.2969C7.40621 17.2078 7.36402 17.1094 7.28902 17.039L7.17652 16.9219H4.86558C3.12183 16.9265 2.53589 16.9406 2.47964 16.9828Z" fill="black"/>
<path d="M9.21094 17.0391C9.13594 17.1094 9.09375 17.2078 9.09375 17.2969C9.09375 17.3859 9.13594 17.4844 9.21094 17.5547L9.32344 17.6719H10.5563C11.5688 17.6719 11.8078 17.6578 11.8922 17.6016C12.0984 17.4562 12.0656 17.0812 11.8313 16.9734C11.7516 16.9406 11.3063 16.9219 10.5188 16.9219H9.32344L9.21094 17.0391Z" fill="black"/>
<path d="M9.21094 19.0547C9.13594 19.125 9.09375 19.2234 9.09375 19.3125C9.09375 19.4016 9.13594 19.5 9.21094 19.5703L9.32344 19.6875H10.5609C11.7375 19.6875 11.7984 19.6828 11.8969 19.5937C11.9531 19.5422 12.0094 19.4484 12.0281 19.3875C12.0609 19.2562 11.9437 19.0078 11.8359 18.9656C11.7937 18.9516 11.2125 18.9375 10.5422 18.9375H9.32344L9.21094 19.0547Z" fill="black"/>
</g>
<defs>
<clipPath id="clip0_92_23">
<rect width="24" height="24" fill="white"/>
</clipPath>
</defs>
</svg>
